<svg width="195" height="86" viewBox="0 0 195 86" fill="none" xmlns="http://www.w3.org/2000/svg">
<path fill-rule="evenodd" clip-rule="evenodd" d="M42.6597 76.7276L6.70968 64.8529L4.4592 72.0247C4.05527 73.2592 4.74772 74.6113 5.95952 75.0228L37.4663 85.4278C38.6781 85.8393 40.0053 85.1339 40.4092 83.8994L42.6597 76.7276Z" fill="#2B2A29"/>
<path d="M42.6597 76.7276L6.70968 64.8529L4.4592 72.0247C4.05527 73.2592 4.74772 74.6113 5.95952 75.0228L37.4663 85.4278C38.6781 85.8393 40.0053 85.1339 40.4092 83.8994L42.6597 76.7276Z" stroke="#2B2A29" stroke-width="0.5669" stroke-miterlimit="22.9256"/>
<path fill-rule="evenodd" clip-rule="evenodd" d="M51.4308 45.3949L44.16 68.6152C44.2754 68.6152 44.3909 68.6152 44.5063 68.5564C45.141 68.38 45.8335 68.5564 46.4105 68.7915C48.4879 62.4427 50.9115 54.683 52.8734 48.393L52.3541 47.4524C52.0656 46.9233 52.2387 46.9233 51.9502 46.3943L51.4308 45.3949ZM14.7883 71.4957L29.2722 25.643C30.3109 26.5248 30.5417 28.4059 32.042 27.8769C32.6191 27.6417 33.1384 27.5242 33.7155 27.289C35.8506 26.5836 35.1004 26.2309 36.7161 28.5235C37.2355 29.2289 37.5817 30.0519 38.2164 30.2283C38.8512 30.4046 41.5056 29.2289 42.3712 28.9938C45.3141 33.2851 44.6794 32.8148 47.2761 31.9918C47.9108 31.7567 48.661 31.5216 49.2957 31.2864C49.642 31.6391 49.9882 32.227 50.3921 32.7561C51.6616 34.5784 51.7193 35.1663 53.2197 34.6372C53.5659 34.5196 54.72 34.0493 54.9508 34.1081L52.3541 42.2793L52.5849 42.5732C53.1043 42.9259 53.1043 43.2199 53.6236 43.6314C53.739 43.7489 53.9121 43.9841 54.1429 44.2192C54.9508 41.5739 56.3357 37.2825 56.5088 36.7535C56.9705 35.225 57.3744 33.4027 58.1246 32.1094C58.6439 31.1689 58.9901 29.9931 58.7016 28.8762C58.5862 28.5823 58.4708 28.3472 58.3554 28.0532C58.9901 27.3478 60.6059 26.5836 61.2406 24.3497C61.4714 23.468 61.4137 22.7038 61.0675 21.9983C60.9521 21.7632 60.9521 21.6456 60.8367 21.528C60.5482 20.999 60.0865 20.6463 59.6249 20.3523C60.2596 18.5888 60.6636 17.8246 60.5482 16.0022C60.2019 11.8285 55.5279 11.123 52.2964 15.3556C51.777 15.238 51.2577 14.5914 49.9882 14.6502C49.2957 14.7089 48.661 14.9441 48.084 15.4144C46.3528 16.7664 46.2951 18.6476 45.8335 19.7645C45.0256 19.7057 44.9679 19.8821 44.3909 19.8821L43.6984 17.0604C43.5253 16.0022 43.583 14.8265 43.9292 13.7096C44.9679 13.6508 45.3141 12.4751 44.7371 11.7697C44.3331 11.2994 38.6781 9.59461 38.4473 9.59461C37.6971 9.6534 36.9469 10.8291 37.8702 11.6521C37.3509 13.2393 36.543 14.2974 35.3889 15.1792C34.2348 16.1198 33.4847 16.8252 32.7922 18.4124C32.3306 18.4712 31.9843 18.5888 31.5804 18.7063C31.3496 18.1773 30.5417 9.41825 28.4644 4.36271C28.0604 3.30457 27.4257 2.12886 26.6178 1.36465C25.5214 0.365301 24.1365 0.188945 22.9824 0.835584C19.347 2.83429 20.2126 13.0042 20.5011 16.5313C20.9627 21.822 21.1359 19.353 19.2893 25.1727C18.77 26.8187 16.808 33.05 15.4808 37.2238L19.6932 38.6346C20.5588 38.9285 21.309 39.2812 21.5975 40.3394C21.7129 40.8097 21.7129 41.2212 21.5975 41.6914C21.1936 42.8672 20.9627 40.5745 19.8087 40.2806C19.8664 40.3394 19.9241 40.3982 19.9241 40.457L20.3857 40.9272C20.9627 41.2799 21.5398 41.9854 21.7129 42.6908C22.0591 44.1017 21.0782 45.5713 19.6355 45.6889L17.1542 45.5125L16.1156 46.0416C15.7693 47.0997 16.0578 46.4531 16.0001 47.3348C15.9424 47.8639 15.7693 47.9227 15.827 48.393C15.9424 49.2748 15.5962 49.6863 15.4231 50.3329C15.3077 50.9208 15.4808 50.6268 15.1923 51.5674C14.9038 52.4492 12.9418 58.8568 12.6533 59.3859C12.307 60.0325 12.5379 59.5034 12.1916 60.3852C11.9608 61.0318 11.73 62.09 11.3261 62.619C11.0952 62.913 10.1143 66.8516 9.65263 67.6158C9.42181 67.9685 9.13329 69.0267 9.01788 69.4969C8.78706 70.2024 8.55624 70.4963 8.49854 70.6139L8.78706 71.0254C9.82574 70.849 10.6336 71.5544 10.9798 71.3781C11.5569 71.0842 12.307 71.0254 12.9418 71.0254C13.8651 71.0842 14.1536 71.2017 14.7883 71.4957Z" fill="black"/>
<path fill-rule="evenodd" clip-rule="evenodd" d="M8.9024 65.5583L15.9424 67.9097L28.7528 24.1146C28.0604 24.1146 25.0597 25.8781 24.2519 25.5842C23.3863 25.2903 22.7515 23.5267 22.2899 23.2916L8.9024 65.5583ZM39.7744 75.7869L41.3901 76.316C41.2747 77.4329 40.6977 78.2559 41.621 76.3748L54.9508 33.9905C54.7199 33.9317 53.6235 34.3432 53.2773 34.402C51.777 34.8135 51.7193 34.2844 50.3921 32.5797C50.0459 32.1094 49.6419 31.5803 49.2957 31.2276C48.6032 31.4627 47.9685 31.6391 47.276 31.8154C44.737 32.4621 45.3718 32.8736 42.3711 28.935C41.5056 29.1113 38.9088 30.0519 38.2741 29.8755C37.6393 29.6992 37.2354 28.935 36.7161 28.2883C35.0426 26.172 35.7928 26.5248 33.6577 27.1126C33.0807 27.289 32.619 27.4065 32.042 27.5829C30.5417 28.0532 29.7915 24.8788 28.6951 24.0558L15.8847 67.8509C23.0401 70.0848 30.5417 72.7301 37.7548 75.0815C38.8511 75.4342 39.7167 75.6694 39.7744 75.7869Z" fill="#7EB6FC"/>
<path fill-rule="evenodd" clip-rule="evenodd" d="M43.2368 26.6425C43.8138 26.8776 45.0833 28.9939 45.6026 29.6993C45.7758 29.9344 46.0066 30.3459 46.122 29.8169V29.5817C45.8912 28.2884 45.1987 26.4661 45.8335 25.7019C46.3528 25.114 47.3338 25.2904 47.6223 25.9958C47.8531 26.5837 47.8531 27.583 48.1417 28.0533C48.7187 27.054 49.4689 26.0546 50.0459 25.0553C50.3921 24.4086 49.8728 22.8214 49.6997 21.7633C49.5843 21.293 49.4112 20.5876 49.4112 20.1761C49.4689 19.5294 49.9882 19.0591 50.5075 19.1179C51.5462 19.1767 51.6039 19.9997 51.777 21.0578C51.777 21.1754 51.8348 21.293 51.8348 21.4693C51.9502 21.9396 51.8348 21.7045 52.0079 21.8221C53.3351 20.4112 54.2006 16.8253 55.8164 17.8246C56.8551 18.4125 56.0472 19.647 55.5856 20.4112C55.2393 20.9403 54.0852 22.645 53.9698 23.1741C54.8354 23.0565 56.3934 22.2923 56.9128 23.4093C57.259 24.1147 56.9128 24.8789 55.8164 25.114C55.701 25.114 55.5856 25.1728 55.4701 25.1728C55.2393 25.2316 55.2393 25.1728 55.1239 25.1728L53.6813 25.5843C53.4505 25.6431 52.4118 25.8195 52.2387 25.937C52.0079 26.1134 50.5652 28.4648 50.3921 28.8763C50.5652 29.0527 50.6807 29.1114 50.8538 29.4054C53.2774 32.8737 52.5272 32.521 54.4315 31.8744C55.5856 31.4629 56.4511 31.4629 56.6242 29.9932C56.7396 28.8175 54.7777 28.8175 55.4701 27.3479C55.7587 26.7012 56.6242 26.7012 57.7783 25.7019C58.5285 25.0553 59.6249 23.7032 58.9324 22.7626C58.4131 21.9984 56.3357 22.1748 56.8551 20.5876C56.9705 20.1761 57.4898 19.5294 57.6629 19.0591C57.9514 18.4713 58.1246 17.7659 58.24 17.178C58.6439 13.5921 55.8164 14.709 54.3738 16.2962C54.0852 16.6489 53.6236 17.178 53.4505 17.4719C53.2197 17.7659 53.0465 18.4125 52.2964 18.4125C51.1423 18.4125 50.9692 16.5314 49.642 17.1192C48.8341 17.4719 48.1994 18.9416 48.0262 20.0585C47.9685 20.5288 47.9685 21.3518 47.9108 21.7633C47.7954 22.2923 47.2761 22.7038 46.8144 22.7038C46.122 22.7038 45.8335 21.9984 45.0833 22.1748C44.6217 22.2923 44.2177 22.7626 43.9869 23.2329C43.3522 24.2323 43.2368 25.4667 43.2368 26.6425Z" fill="#009846"/>
<path fill-rule="evenodd" clip-rule="evenodd" d="M25.0021 23.1154L27.4257 22.2924C28.5221 21.8809 27.8873 22.0572 28.7529 20.8228C29.3877 19.9998 29.4454 20.47 29.2145 18.824C29.0414 17.6483 28.8683 18.1186 27.5411 16.8253C26.2139 15.4733 23.9634 13.5921 23.5018 11.6522C23.1556 10.0062 24.3674 8.06632 27.4257 9.12446C27.4834 8.41903 26.1562 3.83377 24.8867 3.01077C22.5208 1.48235 22.4054 8.41903 22.4054 9.47717C22.4054 10.3589 22.6939 19.118 23.0401 20.3525C23.1556 20.5876 24.7713 22.939 25.0021 23.1154Z" fill="#E8B372"/>
<path fill-rule="evenodd" clip-rule="evenodd" d="M35.2158 18.5887C38.0433 19.4117 39.4282 21.8807 39.4859 24.526C39.5436 25.5841 38.7357 27.3477 38.7357 27.5828C39.1397 27.818 39.7167 27.4065 40.1784 27.3477C40.5823 25.9956 41.0439 24.5848 41.4479 23.2327C42.7174 19.2353 41.4479 19.7644 41.2748 16.5312C41.2748 16.0021 41.2171 15.4143 41.3325 14.8264C41.4479 14.2386 41.621 13.5331 41.621 12.9453L39.8898 12.3574C39.1397 13.6507 39.082 14.4737 37.7548 15.9433C37.2931 16.6488 35.5043 17.8832 35.2158 18.5887Z" fill="#FEFEFE"/>
<path fill-rule="evenodd" clip-rule="evenodd" d="M30.1954 22.9389C30.5417 23.3504 31.8112 25.4079 32.042 25.4666L34.6387 24.5849C35.0426 24.4673 35.6197 24.1734 36.0236 24.2321C36.8315 24.3497 36.7738 24.82 37.2354 25.2315C37.9856 20.5287 31.8112 19.0002 30.1954 22.9389Z" fill="#E31E24"/>
<path fill-rule="evenodd" clip-rule="evenodd" d="M28.5221 14.5914C28.5798 14.2975 28.2913 12.6515 28.1759 12.2988C28.0604 11.8873 28.0027 11.8873 27.2526 11.5346C26.7909 11.2994 26.2716 11.1231 25.81 11.0643C25.5214 11.8873 28.1759 14.1211 28.5221 14.5914Z" fill="#8F7B63"/>
<path fill-rule="evenodd" clip-rule="evenodd" d="M18.6545 38.2819C21.6552 39.5164 24.6558 40.2806 23.5594 44.0429C22.5207 47.57 19.4047 46.747 16.1732 45.5713C12.9995 44.4544 9.30636 43.9253 9.24866 40.8097C9.24866 36.7535 12.1916 36.5771 15.2499 37.165C16.404 37.5765 17.9044 38.0468 18.6545 38.2819ZM4.17064 69.7321C1.92016 68.4388 0.189019 67.028 1.92016 63.9711C3.5936 60.9731 6.94047 62.6778 10.0565 63.6772C13.1726 64.6765 16.5772 65.382 15.5385 69.2618C14.7883 72.1423 12.8841 72.3186 10.5759 71.8484C9.8257 71.4957 8.49849 71.0842 7.86374 70.9078C7.17129 70.6139 4.97851 69.8497 4.17064 69.7321ZM17.9044 47.7463C21.482 50.2153 19.2316 54.3303 16.5194 54.6242C15.0191 54.8006 8.26768 52.6843 6.88276 51.685C3.99753 49.6863 5.61326 45.0422 8.44079 44.7483C9.65259 44.6307 16.9234 47.0409 17.9044 47.7463ZM15.4808 56.3878C18.3083 58.5629 16.5194 62.6778 14.0381 63.1481C12.6532 63.3833 5.44015 61.1494 4.05523 60.1501C1.63164 58.3865 2.61262 53.9776 5.67096 53.4485C7.4021 53.0958 14.1536 55.3884 15.4808 56.3878ZM62.337 65.4408C58.3553 79.1965 54.6045 89.0137 40.2361 81.6067L49.2957 52.9195C47.5069 51.391 45.718 48.2754 44.3908 46.3355C43.0059 44.278 40.7554 41.28 40.4669 39.1637C39.9475 35.2838 43.4675 33.5203 46.4682 36.048C54.1429 42.632 66.5494 50.9795 62.337 65.4408Z" fill="#FBD7AA"/>
<path d="M18.2506 39.3401C18.4814 39.3989 18.7699 39.5164 19.0585 39.6928C21.2512 40.5746 23.2132 41.3388 22.5207 43.749C22.1745 44.9835 21.482 45.395 20.6165 45.4538C19.5201 45.5126 18.0198 45.0423 16.5194 44.5132C15.9424 44.3369 15.3653 44.1017 14.7883 43.9254C12.4801 43.2199 10.345 42.5145 10.345 40.8097C10.345 39.3401 10.8067 38.5759 11.5568 38.282C12.4224 37.9292 13.6919 37.988 15.0191 38.2232C15.4808 38.3995 15.9424 38.5171 16.4617 38.6935C17.1542 38.9874 17.7889 39.1637 18.2506 39.3401ZM4.51687 68.6152C3.59359 68.0862 2.84343 67.5571 2.4972 66.9104C2.20868 66.3814 2.20868 65.6172 2.90113 64.5002C3.93982 62.6779 6.24801 63.5009 8.55619 64.3239C8.96013 64.4415 9.36406 64.6178 9.76799 64.7354C10.0565 64.853 10.345 64.9117 10.5759 64.9705C12.9418 65.7347 15.1922 66.4402 14.4998 68.9091C14.2113 69.9673 13.8073 70.4964 13.2303 70.7315C12.6532 70.9666 11.8454 70.9079 10.9221 70.7315C10.2873 70.4376 9.42177 70.1436 8.72931 69.9673C8.6139 69.9673 8.5562 69.9085 8.20997 69.7909C7.80603 69.6734 7.69063 69.6146 7.63292 69.6146C6.70965 69.3206 5.32473 68.7916 4.51687 68.6152ZM17.3273 48.6282C17.9621 49.0985 18.366 49.5688 18.5391 50.039C18.7122 50.5093 18.7122 51.0384 18.5968 51.4499C18.4814 51.9202 18.1929 52.3905 17.7889 52.7432C17.385 53.0959 16.9234 53.3898 16.404 53.4486C15.827 53.5074 14.0381 53.0959 12.1916 52.508C10.1719 51.9202 8.15226 51.156 7.51751 50.6857C6.88276 50.2154 6.53653 49.6275 6.47883 48.9221C6.42112 48.5694 6.47883 48.1579 6.59423 47.8052C6.70964 47.4525 6.82505 47.0998 7.05587 46.8058C7.45981 46.218 7.97915 45.8653 8.55619 45.7477C8.96013 45.6889 10.6913 46.1592 12.4801 46.7471C14.6729 47.5113 16.8657 48.3343 17.3273 48.6282ZM17.9621 58.3866C17.7889 57.446 17.3273 56.5054 16.4617 55.7412C16.5194 55.7412 16.5771 55.7412 16.6349 55.7412C17.6158 55.6236 18.5391 55.1534 19.2893 54.4479C19.924 53.8601 20.4434 53.0371 20.6742 52.1553C20.905 51.2735 20.905 50.2742 20.5588 49.2748C20.328 48.687 19.9817 48.1579 19.5201 47.6288C19.924 47.6876 20.328 47.6876 20.7319 47.6876C22.5207 47.5701 23.9056 46.6883 24.5981 44.3956C25.8676 40.0455 23.1555 38.8698 20.0394 37.6353V37.5765L19.0007 37.2238C18.5391 37.1063 17.8467 36.8711 17.1542 36.636C16.6349 36.4596 16.1155 36.2833 15.6539 36.1657H15.5962H15.5385C13.8073 35.813 12.1339 35.7542 10.749 36.342C9.24865 36.9887 8.20997 38.3995 8.20997 40.9273C8.20997 42.1618 8.6139 43.1024 9.24865 43.749C8.84472 43.6902 8.5562 43.6314 8.32538 43.6902C7.05587 43.8078 5.95948 44.6308 5.20932 45.6889C4.86309 46.218 4.63228 46.8058 4.45916 47.3937C4.28605 48.0403 4.22834 48.687 4.28605 49.2748C4.40146 50.3918 4.86309 51.4499 5.78637 52.2729C5.67096 52.2729 5.55555 52.2729 5.44014 52.3317C4.17064 52.5668 3.13195 53.2722 2.4972 54.2716C2.09327 54.8594 1.86245 55.4473 1.68934 56.1527C1.51622 56.7994 1.51622 57.5048 1.63163 58.1514C1.80474 59.2683 2.38179 60.3265 3.36277 61.0907C3.47818 61.1495 3.59359 61.2083 3.709 61.3258C2.61261 61.561 1.68934 62.1488 0.88147 63.5009C-0.214919 65.4408 -0.21492 66.9104 0.477537 68.1449C1.11229 69.2619 2.20868 70.0261 3.53589 70.7903L3.709 70.9079L3.88211 70.9666C4.45916 71.0842 5.90178 71.5545 6.82505 71.8484C7.22899 71.966 7.28669 72.0248 7.45981 72.0836C7.51751 72.0836 7.69062 72.1423 8.03685 72.2599C8.6716 72.4363 9.53718 72.7302 10.0565 72.9653L10.1719 73.0241H10.2873C11.6145 73.3181 12.884 73.4356 13.9804 72.9653C15.1345 72.4951 16.0578 71.4957 16.5194 69.6734C17.3273 66.6753 16.2309 65.2057 14.4421 64.2651C15.4231 64.03 16.2886 63.3245 16.9234 62.4428C17.3273 61.9137 17.6158 61.267 17.7889 60.6204C18.0775 59.7974 18.0775 59.092 17.9621 58.3866ZM14.846 57.2696C15.4231 57.6811 15.7116 58.269 15.827 58.7981C15.8847 59.1508 15.8847 59.5623 15.7693 59.9738C15.6539 60.3853 15.4808 60.738 15.2499 61.0907C14.9037 61.6198 14.3844 61.9725 13.865 62.09C13.3457 62.2076 11.5568 61.7373 9.65258 61.1495C7.51751 60.5028 5.38244 59.6798 4.74769 59.2683C4.28605 58.9156 3.99752 58.3866 3.88211 57.7987C3.82441 57.446 3.82441 57.0345 3.93982 56.623C4.05523 56.2115 4.17064 55.8588 4.40146 55.5649C4.74768 55.0358 5.26703 54.6831 5.95948 54.5655C6.53653 54.4479 8.26767 54.8594 10.0565 55.3885C12.0762 55.9764 14.2113 56.7994 14.846 57.2696ZM61.8176 73.2593C62.7409 71.4369 63.4911 69.3794 64.1258 67.1456C67.7035 54.0952 60.1442 45.395 51.2577 38.4583C49.6996 37.2826 48.3147 36.1657 47.1606 35.1663C46.1797 34.3433 45.141 33.8731 44.16 33.7555C43.2367 33.6379 42.3134 33.8143 41.5633 34.2258C40.8131 34.6373 40.1784 35.2839 39.7744 36.1657C39.3705 37.0475 39.1974 38.1056 39.3705 39.2813C39.659 41.3976 41.4479 44.0429 42.8905 46.1004C43.0636 46.3356 43.179 46.5119 43.4675 46.9822C43.7561 47.3937 44.0446 47.864 44.3908 48.3343C45.4295 49.9803 46.699 51.9202 48.0262 53.2722L38.9089 82.1359L39.7167 82.5474C41.7364 83.6055 39.4859 82.7825 41.3325 83.3116C46.2951 84.7224 49.3534 84.4285 53.0465 82.6061C56.7396 80.8426 59.6826 77.6094 61.8176 73.2593ZM61.9907 66.5577C61.4137 68.674 60.7212 70.5551 59.8557 72.2599C57.9514 76.1397 55.297 79.0202 52.0655 80.6074C48.8341 82.1946 46.2951 82.4298 41.8518 81.1953C40.4092 80.7838 43.0636 81.7831 41.5056 81.0189L50.5075 52.5668L49.9305 52.0965C48.661 50.9796 47.2761 48.8633 46.1797 47.0998C45.8334 46.6295 45.5449 46.1592 45.2564 45.6889L44.6793 44.8071C43.4098 42.926 41.7364 40.5746 41.5056 38.9874C41.3902 38.2232 41.5056 37.6353 41.7364 37.1063C41.9095 36.6948 42.198 36.342 42.602 36.1657C42.9482 35.9893 43.4098 35.8718 43.8715 35.9305C44.4485 35.9893 45.0833 36.2833 45.718 36.8123C46.9298 37.8117 48.3724 38.9286 49.9305 40.1631C58.3554 46.8058 65.1645 54.977 61.9907 66.5577Z" fill="#2B2A29"/>
<path fill-rule="evenodd" clip-rule="evenodd" d="M23.3286 71.7895C21.5398 71.2016 19.5778 72.201 19.0008 74.0821C18.4237 75.9044 19.4047 77.9031 21.1936 78.491C22.9824 79.0789 24.9444 78.0795 25.5214 76.1984C26.1562 74.376 25.1175 72.3773 23.3286 71.7895Z" fill="#FEFEFE"/>
<path d="M182.882 74.3761C179.074 74.3761 176.073 71.5544 176.073 67.2631C176.073 62.9718 179.074 60.1501 182.882 60.1501C186.691 60.1501 189.691 62.9718 189.691 67.2631C189.691 71.5544 186.691 74.3761 182.882 74.3761ZM182.882 79.7256C189.576 79.7256 195 74.3173 195 67.3219C195 60.2676 189.576 54.9182 182.882 54.9182C176.188 54.9182 170.764 60.3264 170.764 67.3219C170.764 74.3173 176.188 79.7256 182.882 79.7256ZM171.745 79.2553L163.551 67.0279L171.399 55.3884H165.34L158.184 65.7347V55.3297H152.818V79.2553H158.184V68.2037L165.686 79.2553H171.745ZM125.466 79.2553H130.832V55.3297H126.851L117.849 68.3212V55.3297H112.482V79.2553H116.464L125.466 66.2637V79.2553ZM88.4772 79.2553C92.8051 79.7256 97.71 78.0796 97.71 69.5557V60.6203H103.192V79.2553H108.558V55.3297H92.4011V69.7321C92.4011 73.7295 90.9585 74.4937 88.5349 74.0822V79.2553H88.4772ZM79.5907 74.0822H75.8976V69.3206H79.5907C81.0333 69.3206 82.2451 69.9672 82.2451 71.7308C82.3028 73.4356 81.091 74.0822 79.5907 74.0822ZM79.5907 64.2062H75.8976V60.5615H85.592V55.3297H70.5887V79.2553H79.5907C84.3802 79.2553 87.6116 76.2573 87.6116 71.7308C87.6116 67.2043 84.3802 64.2062 79.5907 64.2062Z" fill="#2B2A29"/>
<path d="M184.209 39.34H180.689V33.1676H184.209C185.825 33.1676 187.037 34.5196 187.037 36.2244C187.037 37.988 185.825 39.34 184.209 39.34ZM184.209 28.0532H175.38V51.9201H180.747V44.4543H184.267C188.883 44.4543 192.461 40.8097 192.461 36.2832C192.403 31.6979 188.826 28.0532 184.209 28.0532ZM159.281 43.0435L161.993 34.2845L164.705 43.0435H159.281ZM167.533 51.9201H173.361L165.398 28.0532H158.588L150.625 51.9201H156.453L157.607 48.1578H166.263L167.533 51.9201ZM118.599 43.0435L121.311 34.2845L124.023 43.0435H118.599ZM126.793 51.9201H132.621L124.658 28.0532H117.849L109.943 51.9201H115.772L116.926 48.1578H125.581L126.793 51.9201ZM101.98 46.8058H98.287V42.0441H101.98C103.423 42.0441 104.635 42.6908 104.635 44.4543C104.635 46.1591 103.423 46.8058 101.98 46.8058ZM101.98 36.9298H98.287V33.2851H107.981V28.0532H92.9782V51.9201H101.98C106.77 51.9201 110.001 48.922 110.001 44.3956C110.001 39.8691 106.712 36.9298 101.98 36.9298Z" fill="#2B2A29"/>
<path d="M190.903 19.2354C191.884 19.2354 192.519 18.5888 192.519 17.707C192.519 16.884 191.942 16.6489 191.422 16.4725C191.942 16.2374 192.403 15.8846 192.403 15.238C192.403 14.5326 191.942 13.8859 190.961 13.8859H189.691C189.518 13.8859 189.345 14.0623 189.345 14.2387V18.8239C189.345 19.0003 189.518 19.1766 189.691 19.1766H190.903V19.2354ZM190.788 16.7664C191.422 16.7664 191.942 17.1191 191.942 17.707C191.942 18.2361 191.596 18.6476 190.845 18.6476H189.922V16.7664H190.788ZM189.864 16.1786V14.4738H190.845C191.538 14.4738 191.711 14.8265 191.711 15.238C191.711 15.8259 191.192 16.1198 190.672 16.1198H189.864V16.1786ZM183.632 14.415C184.44 14.415 184.729 14.9441 184.729 15.7671V17.4131C184.729 18.2361 184.382 18.7651 183.632 18.7651C182.882 18.7651 182.536 18.2361 182.536 17.4131V15.7671C182.536 14.9441 182.824 14.415 183.632 14.415ZM183.632 19.353C184.786 19.353 185.363 18.4712 185.363 17.4131V15.7671C185.363 14.7089 184.902 13.8272 183.632 13.8272C182.42 13.8272 181.901 14.7089 181.901 15.7671V17.4131C181.959 18.4712 182.536 19.353 183.632 19.353ZM176.592 19.0003C176.592 19.1766 176.708 19.2942 176.881 19.2942C177.054 19.2942 177.169 19.1766 177.169 19.0003V14.4738H178.15C178.323 14.4738 178.439 14.3562 178.439 14.1799C178.439 14.0035 178.266 13.8859 178.15 13.8859H175.554C175.381 13.8859 175.265 14.0623 175.265 14.1799C175.265 14.3562 175.381 14.4738 175.554 14.4738H176.535V19.0003H176.592ZM169.379 14.1211C169.379 13.9447 169.264 13.8272 169.091 13.8272C168.918 13.8272 168.802 13.9447 168.802 14.1211V19.0003C168.802 19.1766 168.918 19.2942 169.091 19.2942C169.264 19.2942 169.379 19.1766 169.379 19.0003V16.884H169.783L171.341 19.1766C171.399 19.2942 171.514 19.2942 171.572 19.2942C171.745 19.2942 171.861 19.1178 171.861 18.9415C171.861 18.8827 171.861 18.8239 171.803 18.8239L170.245 16.5313L171.803 14.2387C171.861 14.1799 171.861 14.1211 171.861 14.1211C171.861 14.0035 171.745 13.7684 171.572 13.7684C171.457 13.7684 171.399 13.8272 171.341 13.8859L169.783 16.1786H169.379V14.1211ZM164.936 14.2387C164.936 14.2387 164.936 14.1799 164.936 14.1211C164.936 13.9447 164.821 13.8272 164.647 13.8272C164.532 13.8272 164.417 13.8859 164.359 14.0035L163.263 17.1779L162.108 14.0035C162.051 13.8859 161.935 13.8272 161.878 13.8272C161.705 13.8272 161.589 13.9447 161.589 14.1211C161.589 14.1799 161.589 14.1799 161.589 14.2387L162.974 18.0009C162.743 18.53 162.57 18.7651 162.051 18.7651C161.878 18.7651 161.762 18.8827 161.762 19.0591C161.762 19.2354 161.878 19.353 162.051 19.353C163.032 19.353 163.32 18.5888 163.666 17.5894L164.936 14.2387ZM155.415 16.6489L155.472 14.4738H157.03V18.6476H154.953C155.242 18.2361 155.415 17.5306 155.415 16.6489ZM157.377 13.8859H155.242C155.126 13.8859 154.953 13.9447 154.953 14.1799L154.838 16.6489C154.78 17.5894 154.665 18.2948 154.434 18.6476H154.203C154.03 18.6476 153.914 18.8239 153.914 19.0591V19.9996C153.914 20.176 154.03 20.2935 154.203 20.2935C154.376 20.2935 154.491 20.176 154.491 19.9996V19.2354H157.55V19.9996C157.55 20.176 157.665 20.2935 157.838 20.2935C158.011 20.2935 158.127 20.176 158.127 19.9996V19.0591C158.127 18.8239 158.011 18.6476 157.838 18.6476H157.665V14.1799C157.665 14.0623 157.55 13.8859 157.377 13.8859ZM148.779 14.415C149.587 14.415 149.875 14.9441 149.875 15.7671V17.4131C149.875 18.2361 149.529 18.7651 148.779 18.7651C148.028 18.7651 147.682 18.2361 147.682 17.4131V15.7671C147.682 14.9441 147.971 14.415 148.779 14.415ZM148.779 19.353C149.933 19.353 150.51 18.4712 150.51 17.4131V15.7671C150.51 14.7089 150.048 13.8272 148.779 13.8272C147.509 13.8272 147.048 14.7089 147.048 15.7671V17.4131C147.105 18.4712 147.682 19.353 148.779 19.353ZM140.873 14.5326H141.739C142.604 14.5326 142.835 15.0616 142.835 15.6495C142.835 16.4137 142.489 16.7664 141.739 16.7664H140.873V14.5326ZM141.739 17.2955C142.777 17.2955 143.412 16.7076 143.412 15.6495C143.412 14.7677 142.95 13.9447 141.739 13.9447H140.642C140.469 13.9447 140.296 14.1211 140.296 14.2974V19.0591C140.296 19.2354 140.411 19.353 140.585 19.353C140.758 19.353 140.873 19.1766 140.873 19.0591V17.3543H141.739V17.2955ZM136.141 19.0003V14.1799C136.141 14.0035 136.026 13.8859 135.853 13.8859H133.256C133.083 13.8859 132.968 14.0035 132.968 14.1799V19.0003C132.968 19.1766 133.083 19.2942 133.256 19.2942C133.429 19.2942 133.545 19.1766 133.545 19.0003V14.4738H135.564V19.0003C135.564 19.1766 135.68 19.2942 135.853 19.2942C136.026 19.353 136.141 19.1766 136.141 19.0003ZM123.735 14.8853L124.485 17.4718H122.985L123.735 14.8853ZM122.754 18.0597H124.6L124.947 19.1178C125.004 19.2354 125.12 19.353 125.235 19.353C125.408 19.353 125.524 19.2354 125.524 19.0591C125.524 19.0003 125.524 18.9415 125.524 18.9415L124.081 14.2387C124.023 14.0035 123.908 13.8272 123.677 13.8272C123.446 13.8272 123.331 14.0035 123.273 14.2387L121.831 18.9415C121.831 18.9415 121.831 19.0003 121.831 19.0591C121.831 19.2354 121.946 19.353 122.119 19.353C122.235 19.353 122.35 19.2354 122.408 19.1178L122.754 18.0597ZM115.945 14.1211C115.945 13.9447 115.829 13.8272 115.656 13.8272C115.483 13.8272 115.368 13.9447 115.368 14.1211V19.0003C115.368 19.1766 115.483 19.2942 115.656 19.2942C115.829 19.2942 115.945 19.1766 115.945 19.0003V16.884H116.349L117.907 19.1766C117.964 19.2942 118.08 19.2942 118.137 19.2942C118.311 19.2942 118.426 19.1178 118.426 18.9415C118.426 18.8827 118.426 18.8239 118.368 18.8239L116.81 16.5313L118.368 14.2387C118.426 14.1799 118.426 14.1211 118.426 14.1211C118.426 14.0035 118.311 13.7684 118.137 13.7684C118.022 13.7684 117.964 13.8272 117.907 13.8859L116.349 16.1786H115.945V14.1211ZM109.828 19.2354C110.809 19.2354 111.444 18.5888 111.444 17.707C111.444 16.884 110.867 16.6489 110.347 16.4725C110.867 16.2374 111.328 15.8846 111.328 15.238C111.328 14.5326 110.867 13.8859 109.886 13.8859H108.616C108.443 13.8859 108.27 14.0623 108.27 14.2387V18.8239C108.27 19.0003 108.443 19.1766 108.616 19.1766H109.828V19.2354ZM109.713 16.7664C110.347 16.7664 110.867 17.1191 110.867 17.707C110.867 18.2361 110.52 18.6476 109.77 18.6476H108.847V16.7664H109.713ZM108.847 16.1786V14.4738H109.828C110.52 14.4738 110.694 14.8265 110.694 15.238C110.694 15.8259 110.174 16.1198 109.655 16.1198H108.847V16.1786ZM102.615 14.8853L103.365 17.4718H101.865L102.615 14.8853ZM101.692 18.0597H103.538L103.884 19.1178C103.942 19.2354 104.058 19.353 104.173 19.353C104.346 19.353 104.461 19.2354 104.461 19.0591C104.461 19.0003 104.461 18.9415 104.461 18.9415L103.019 14.2387C102.961 14.0035 102.846 13.8272 102.615 13.8272C102.384 13.8272 102.269 14.0035 102.211 14.2387L100.768 18.9415C100.768 18.9415 100.768 19.0003 100.768 19.0591C100.768 19.2354 100.884 19.353 101.057 19.353C101.172 19.353 101.288 19.2354 101.345 19.1178L101.692 18.0597ZM95.9789 19.0003C95.9789 19.1766 96.0943 19.2942 96.2674 19.2942C96.4405 19.2942 96.5559 19.1766 96.5559 19.0003V14.4738H97.5369C97.71 14.4738 97.8254 14.3562 97.8254 14.1799C97.8254 14.0035 97.6523 13.8859 97.5369 13.8859H94.9402C94.7671 13.8859 94.6517 14.0623 94.6517 14.1799C94.6517 14.3562 94.7671 14.4738 94.9402 14.4738H95.9212V19.0003H95.9789ZM88.0733 17.4131C88.0733 18.5888 88.5927 19.353 89.7468 19.353C90.4392 19.353 91.074 19.0591 91.074 18.7063C91.074 18.5888 90.9586 18.4124 90.7854 18.4124C90.67 18.4124 90.67 18.4712 90.4969 18.53C90.2661 18.7063 90.0353 18.7651 89.7468 18.7651C88.9389 18.7651 88.6504 18.2361 88.6504 17.4131V15.7671C88.6504 14.9441 88.9389 14.415 89.7468 14.415C90.0353 14.415 90.2661 14.4738 90.4969 14.6502C90.6123 14.7089 90.67 14.7677 90.7854 14.7677C90.9586 14.7677 91.074 14.6502 91.074 14.4738C91.074 14.1211 90.4392 13.8272 89.7468 13.8272C88.5927 13.8272 88.0733 14.5914 88.0733 15.7671V17.4131ZM82.6491 14.415C83.4569 14.415 83.7455 14.9441 83.7455 15.7671V17.4131C83.7455 18.2361 83.3992 18.7651 82.6491 18.7651C81.8989 18.7651 81.5527 18.2361 81.5527 17.4131V15.7671C81.5527 14.9441 81.8412 14.415 82.6491 14.415ZM82.6491 19.353C83.8032 19.353 84.3802 18.4712 84.3802 17.4131V15.7671C84.3802 14.7089 83.9186 13.8272 82.6491 13.8272C81.3796 13.8272 80.9179 14.7089 80.9179 15.7671V17.4131C80.9756 18.4712 81.495 19.353 82.6491 19.353ZM74.6281 16.6489L74.6858 14.4738H76.2439V18.6476H74.1665C74.455 18.2361 74.5704 17.5306 74.6281 16.6489ZM76.5901 13.8859H74.455C74.3396 13.8859 74.1665 13.9447 74.1665 14.1799L74.0511 16.6489C73.9934 17.5894 73.878 18.2948 73.6472 18.6476H73.4163C73.2432 18.6476 73.1278 18.8239 73.1278 19.0591V19.9996C73.1278 20.176 73.2432 20.2935 73.4163 20.2935C73.5894 20.2935 73.7049 20.176 73.7049 19.9996V19.2354H76.7632V19.9996C76.7632 20.176 76.8786 20.2935 77.0517 20.2935C77.2248 20.2935 77.3403 20.176 77.3403 19.9996V19.0591C77.3403 18.8239 77.2248 18.6476 77.0517 18.6476H76.8786V14.1799C76.8786 14.0623 76.7055 13.8859 76.5901 13.8859Z" fill="#2B2A29"/>
<path d="M140.758 46.6882L149.644 32.2858V28.0532H134.006V33.2851H142.777L133.833 47.6875V51.9201H149.817V46.6882H140.758Z" fill="#2F993A"/>
<path d="M140.931 73.9646L149.875 59.5622V55.3297H134.179V60.5615H142.95L134.006 75.0228V79.2553H149.99V73.9646H140.931Z" fill="#E31E24"/>
</svg>
