<svg width="86" height="86" viewBox="0 0 86 86" fill="none" xmlns="http://www.w3.org/2000/svg">
<g opacity="0.3">
<path d="M39.4203 35.8334H46.5869V53.75H39.4203V35.8334ZM39.4167 57.3334H46.5833V64.5H39.4167V57.3334Z" fill="#EA5E20"/>
<path d="M49.3353 15.05C48.0883 12.7029 45.6588 11.2445 43 11.2445C40.3412 11.2445 37.9117 12.7029 36.6647 15.0536L10.3702 64.7293C9.78669 65.8202 9.49766 67.0444 9.53159 68.281C9.56552 69.5177 9.92124 70.7241 10.5637 71.7813C11.1968 72.8434 12.096 73.7219 13.1725 74.3302C14.249 74.9385 15.4655 75.2555 16.7019 75.25H69.2981C71.8351 75.25 74.132 73.9528 75.4399 71.7813C76.0813 70.7237 76.4365 69.5174 76.4704 68.281C76.5043 67.0445 76.2159 65.8205 75.6334 64.7293L49.3353 15.05ZM16.7019 68.0833L43 18.4076L69.316 68.0833H16.7019Z" fill="#EA5E20"/>
</g>
</svg>
