<svg width="224" height="445" viewBox="0 0 224 445" fill="none" xmlns="http://www.w3.org/2000/svg">
<g clip-path="url(#clip0)">
<path fill-rule="evenodd" clip-rule="evenodd" d="M206.84 0.167969H233.379L15.5396 492.8H-11L206.84 0.167969Z" fill="#309939"/>
<path fill-rule="evenodd" clip-rule="evenodd" d="M244.569 0.167969H271.109L53.2688 492.8H26.7292L244.569 0.167969Z" fill="#E32025"/>
<path fill-rule="evenodd" clip-rule="evenodd" d="M282.298 0.167969H308.838L90.9981 492.8H64.4585L282.298 0.167969Z" fill="#309939"/>
<path fill-rule="evenodd" clip-rule="evenodd" d="M320.027 0.167969H346.567L128.727 492.8H102.188L320.027 0.167969Z" fill="#E32025"/>
<path fill-rule="evenodd" clip-rule="evenodd" d="M357.757 0.167969H384.296L166.457 492.8H139.917L357.757 0.167969Z" fill="#309939"/>
<path fill-rule="evenodd" clip-rule="evenodd" d="M395.486 0.167969H422.026L204.114 492.8H177.574L395.486 0.167969Z" fill="#E32025"/>
<path fill-rule="evenodd" clip-rule="evenodd" d="M433.215 0.167969H459.755L241.843 492.8H215.304L433.215 0.167969Z" fill="#309939"/>
</g>
<defs>
<clipPath id="clip0">
<rect width="224" height="445" fill="white"/>
</clipPath>
</defs>
</svg>
