<svg width="56" height="56" viewBox="0 0 56 56" fill="none" xmlns="http://www.w3.org/2000/svg">
<circle cx="28" cy="28" r="28" fill="#E9E9E9"/>
<g opacity="0.3">
<path d="M41.2113 29.2432L28.8947 15.0488C28.7833 14.9204 28.6457 14.8174 28.4911 14.7468C28.3364 14.6762 28.1684 14.6396 27.9985 14.6396C27.8285 14.6396 27.6605 14.6762 27.5059 14.7468C27.3513 14.8174 27.2136 14.9204 27.1023 15.0488L14.7894 29.2432C14.7522 29.2859 14.7281 29.3385 14.7199 29.3946C14.7117 29.4507 14.7198 29.508 14.7433 29.5596C14.7668 29.6112 14.8046 29.655 14.8522 29.6858C14.8999 29.7165 14.9553 29.7329 15.012 29.733H18.0179C18.1886 29.733 18.3519 29.6588 18.4669 29.5289L26.5902 20.1662V41.0625C26.5902 41.2258 26.7238 41.3594 26.887 41.3594H29.1136C29.2769 41.3594 29.4105 41.2258 29.4105 41.0625V20.1662L37.5337 29.5289C37.6451 29.6588 37.8083 29.733 37.9827 29.733H40.9886C41.2409 29.733 41.3783 29.4361 41.2113 29.2432Z" fill="black"/>
</g>
</svg>
