<svg width="14" height="14" viewBox="0 0 14 14" fill="none" xmlns="http://www.w3.org/2000/svg">
<path fill-rule="evenodd" clip-rule="evenodd" d="M7.00822 2.71444L6.28356 1.98977C4.85164 0.557852 2.53003 0.557852 1.09811 1.98977C-0.333811 3.4217 -0.333811 5.7433 1.09811 7.17522L6.99067 13.0678L6.99187 13.0666L7.00942 13.0841L12.902 7.19158C14.3339 5.75966 14.3339 3.43805 12.902 2.00613C11.4701 0.574209 9.14845 0.574209 7.71653 2.00613L7.00822 2.71444ZM6.99187 11.181L10.2827 7.89014L11.2499 6.95612L11.2509 6.95708L11.9592 6.24877C12.8704 5.33755 12.8704 3.86016 11.9592 2.94894C11.0479 2.03772 9.57056 2.03772 8.65934 2.94894L7.00894 4.59934L7.00411 4.59451L7.0034 4.59523L5.34075 2.93258C4.42953 2.02136 2.95214 2.02136 2.04092 2.93258C1.1297 3.84381 1.1297 5.32119 2.04092 6.23242L3.73387 7.92537L3.73507 7.92417L6.99187 11.181Z" fill="#E11E24"/>
</svg>
