<svg width="12" height="12" viewBox="0 0 12 12" fill="none" xmlns="http://www.w3.org/2000/svg">
<path fill-rule="evenodd" clip-rule="evenodd" d="M2.66667 7.33334C2.99804 7.33334 3.26667 7.60197 3.26667 7.93334V10.7333H8.73334V7.93334C8.73334 7.60197 9.00197 7.33334 9.33334 7.33334C9.66471 7.33334 9.93334 7.60197 9.93334 7.93334V11.3333C9.93334 11.6647 9.66471 11.9333 9.33334 11.9333H2.66667C2.3353 11.9333 2.06667 11.6647 2.06667 11.3333V7.93334C2.06667 7.60197 2.3353 7.33334 2.66667 7.33334Z" fill="#828282"/>
<path fill-rule="evenodd" clip-rule="evenodd" d="M0 11.3333C0 11.002 0.268629 10.7333 0.6 10.7333H11.4C11.7314 10.7333 12 11.002 12 11.3333C12 11.6647 11.7314 11.9333 11.4 11.9333H0.6C0.268629 11.9333 0 11.6647 0 11.3333Z" fill="#828282"/>
<path fill-rule="evenodd" clip-rule="evenodd" d="M9.26667 4.66666C9.26667 5.07167 9.595 5.39999 10 5.39999C10.405 5.39999 10.7333 5.07166 10.7333 4.66666H11.9333C11.9333 5.73441 11.0678 6.59999 10 6.59999C8.93225 6.59999 8.06667 5.73441 8.06667 4.66666H9.26667Z" fill="#828282"/>
<path fill-rule="evenodd" clip-rule="evenodd" d="M8.66667 4.06666C8.99804 4.06666 9.26667 4.33529 9.26667 4.66666C9.26667 5.07167 9.595 5.39999 10 5.39999C10.405 5.39999 10.7333 5.07166 10.7333 4.66666C10.7333 4.33529 11.002 4.06666 11.3333 4.06666C11.6647 4.06666 11.9333 4.33529 11.9333 4.66666C11.9333 5.73441 11.0678 6.59999 10 6.59999C8.93225 6.59999 8.06667 5.73441 8.06667 4.66666C8.06667 4.33529 8.3353 4.06666 8.66667 4.06666Z" fill="#828282"/>
<path fill-rule="evenodd" clip-rule="evenodd" d="M6 4.06666C6.33137 4.06666 6.6 4.33529 6.6 4.66666C6.6 5.07167 6.92833 5.39999 7.33334 5.39999C7.73835 5.39999 8.06667 5.07166 8.06667 4.66666C8.06667 4.33529 8.3353 4.06666 8.66667 4.06666C8.99804 4.06666 9.26667 4.33529 9.26667 4.66666C9.26667 5.73441 8.40109 6.59999 7.33334 6.59999C6.26559 6.59999 5.4 5.73441 5.4 4.66666C5.4 4.33529 5.66863 4.06666 6 4.06666Z" fill="#828282"/>
<path fill-rule="evenodd" clip-rule="evenodd" d="M3.33334 4.06666C3.66471 4.06666 3.93334 4.33529 3.93334 4.66666C3.93334 5.07167 4.26166 5.39999 4.66667 5.39999C5.07168 5.39999 5.4 5.07167 5.4 4.66666C5.4 4.33529 5.66863 4.06666 6 4.06666C6.33137 4.06666 6.6 4.33529 6.6 4.66666C6.6 5.73441 5.73442 6.59999 4.66667 6.59999C3.59892 6.59999 2.73334 5.73441 2.73334 4.66666C2.73334 4.33529 3.00197 4.06666 3.33334 4.06666Z" fill="#828282"/>
<path fill-rule="evenodd" clip-rule="evenodd" d="M0.666671 4.06666C0.998042 4.06666 1.26667 4.33529 1.26667 4.66666C1.26667 5.07167 1.595 5.39999 2 5.39999C2.40501 5.39999 2.73334 5.07167 2.73334 4.66666C2.73334 4.33529 3.00197 4.06666 3.33334 4.06666C3.66471 4.06666 3.93334 4.33529 3.93334 4.66666C3.93334 5.73441 3.06775 6.59999 2 6.59999C0.932254 6.59999 0.0666707 5.73441 0.0666707 4.66666C0.0666707 4.33529 0.3353 4.06666 0.666671 4.06666Z" fill="#828282"/>
<path fill-rule="evenodd" clip-rule="evenodd" d="M3.8021 0.0666071C3.826 0.0666318 3.85015 0.0666568 3.87455 0.0666568H8.12547C8.14987 0.0666568 8.17401 0.0666318 8.19791 0.0666071C8.56664 0.0662256 8.87727 0.0659042 9.16657 0.158289C9.42048 0.239378 9.65489 0.372098 9.85507 0.548111C10.0831 0.748646 10.2427 1.01518 10.4321 1.33156C10.4443 1.35206 10.4567 1.37278 10.4693 1.3937L11.5438 3.1846C11.5499 3.19481 11.556 3.20492 11.562 3.21493C11.6575 3.37389 11.7382 3.50816 11.7966 3.65525C11.8481 3.78484 11.8855 3.91961 11.908 4.05723C11.9335 4.21344 11.9335 4.37007 11.9334 4.5555C11.9333 4.56718 11.9333 4.57897 11.9333 4.59089L11.9333 4.66666H10.7333L10.7333 4.59089C10.7333 4.3521 10.7315 4.29869 10.7237 4.25093C10.7152 4.19873 10.701 4.14761 10.6815 4.09846C10.6636 4.05348 10.6377 4.00676 10.5148 3.802L9.44029 2.0111C9.19328 1.59941 9.13182 1.51009 9.06266 1.44928C8.98674 1.38251 8.89782 1.33217 8.80151 1.30141C8.71378 1.2734 8.60557 1.26666 8.12547 1.26666H3.87455C3.39444 1.26666 3.28623 1.2734 3.1985 1.30141C3.10219 1.33217 3.01328 1.38251 2.93735 1.44928C2.86819 1.51009 2.80673 1.59941 2.55972 2.0111L1.48518 3.802C1.36233 4.00676 1.3364 4.05348 1.31852 4.09846C1.29899 4.14761 1.28483 4.19873 1.27629 4.25093C1.26848 4.29869 1.26667 4.3521 1.26667 4.59089L1.26667 4.66666H0.0666707L0.0666727 4.59089C0.0666727 4.57898 0.0666664 4.56719 0.0666601 4.55551C0.0665605 4.37007 0.0664763 4.21344 0.0920257 4.05723C0.114534 3.91961 0.151865 3.78484 0.203367 3.65525C0.261826 3.50816 0.342487 3.37389 0.437977 3.21493C0.443991 3.20492 0.450063 3.19482 0.456192 3.1846L1.53073 1.3937C1.54328 1.37278 1.55569 1.35206 1.56796 1.33155C1.75734 1.01518 1.91689 0.748645 2.14495 0.548111C2.34512 0.372098 2.57953 0.239378 2.83345 0.158289C3.12274 0.0659042 3.43338 0.0662256 3.8021 0.0666071Z" fill="#828282"/>
</svg>
