<svg width="40" height="60" viewBox="0 0 40 60" fill="none" xmlns="http://www.w3.org/2000/svg">
<path fill-rule="evenodd" clip-rule="evenodd" d="M33.7303 0L39.0596 5.3515V39.3301H5.3105L0 33.9845V0H33.7303Z" fill="#EA5E20"/>
<path fill-rule="evenodd" clip-rule="evenodd" d="M5.3683 45.8457C5.90372 45.8457 6.454 45.889 6.96521 46.0912C7.4401 46.2659 7.85995 46.563 8.21648 47.0374C8.55703 47.5009 8.81127 48.0403 8.98234 48.669C9.14246 49.2843 9.23227 49.9854 9.23227 50.7644C9.23227 51.6213 9.13424 52.3925 8.92569 53.0892C8.91086 53.1935 8.86634 53.3005 8.82222 53.4174C8.62851 53.9796 8.35786 54.4867 8.03371 54.9352C7.62755 55.4719 7.16321 55.8842 6.61839 56.1537C6.0908 56.4181 5.49364 56.5522 4.83168 56.5522C4.26775 56.5522 3.74562 56.4358 3.25742 56.1903V56.197C3.18752 56.1537 3.10549 56.1159 3.03246 56.0628C2.76885 55.9086 2.5322 55.7252 2.30215 55.4962V59.9999H0.0968018V45.8607C1.85265 45.8607 3.61398 45.8457 5.36827 45.8457L5.3683 45.8457ZM2.29555 53.535C2.68803 53.9485 3.07038 54.2644 3.44999 54.4745C3.8292 54.6858 4.21542 54.7901 4.58525 54.7901H4.58919C4.95509 54.7901 5.2824 54.7118 5.5542 54.5477C5.60378 54.5261 5.65224 54.4974 5.6819 54.4702C5.91309 54.305 6.10445 54.0866 6.28057 53.8199H6.28876C6.38562 53.6487 6.47155 53.4701 6.54964 53.2639C6.62891 53.066 6.70039 52.8426 6.74997 52.6065C6.85114 52.1308 6.91439 51.582 6.91439 50.9517C6.91439 49.8119 6.74221 48.9566 6.40709 48.4062C6.09346 47.8896 5.62407 47.639 4.99021 47.639H2.29548V53.535L2.29555 53.535Z" fill="#252525"/>
<path fill-rule="evenodd" clip-rule="evenodd" d="M36.5059 45.8607H38.9952L34.859 50.5871L40 56.3245H37.0171L32.1373 50.8597L36.5059 45.8607Z" fill="#252525"/>
<path fill-rule="evenodd" clip-rule="evenodd" d="M29.764 56.1281V42.4763H31.9783V56.1281V56.3245H31.7752H29.9561H29.764V56.1281Z" fill="#252525"/>
<path fill-rule="evenodd" clip-rule="evenodd" d="M20.8801 45.8607H23.0905V47.3435L23.1417 47.2731C23.2909 47.098 23.4404 46.9328 23.6045 46.7903C24.4332 46.0263 25.433 45.6372 26.6022 45.6372C26.8791 45.6372 27.1767 45.6572 27.5024 45.6954C27.8102 45.7414 28.1468 45.7985 28.5034 45.8674L28.6537 45.9095V46.0652V48.9267V49.123H28.455H27.092H26.8995V48.9267V47.6811C26.8389 47.6689 26.7526 47.6551 26.6854 47.6512C26.578 47.639 26.4663 47.6295 26.3613 47.6295C26.0235 47.6295 25.7224 47.6689 25.433 47.7432C25.1463 47.8235 24.8812 47.9356 24.6269 48.0851C24.3781 48.2409 24.1294 48.4494 23.8642 48.7071C23.6139 48.9711 23.3487 49.2792 23.0905 49.6396V56.3245H20.8801V45.8606L20.8801 45.8607Z" fill="#252525"/>
<path fill-rule="evenodd" clip-rule="evenodd" d="M16.4158 55.2417C15.9249 55.6305 15.4281 55.9314 14.9236 56.1415C14.3585 56.38 13.7867 56.5008 13.2204 56.5008C12.2449 56.5008 11.4591 56.2242 10.8296 55.6686C10.5078 55.3866 10.2711 55.0639 10.111 54.7142C9.95905 54.3456 9.8634 53.958 9.8634 53.5217V53.5189C9.8634 52.9685 9.9915 52.4684 10.2387 52.0144C10.2793 51.944 10.3223 51.8787 10.368 51.7988C10.6089 51.4396 10.9264 51.1142 11.3392 50.842L11.3447 50.8325C11.5747 50.6697 11.8387 50.5249 12.1183 50.408C12.389 50.2821 12.6823 50.1735 12.9971 50.0925C13.6254 49.9296 14.3249 49.847 15.0985 49.847H16.0257V49.1856V49.1723C16.0257 48.8453 15.9839 48.5609 15.9151 48.3287C15.9019 48.287 15.8882 48.2587 15.8788 48.2244C15.8155 48.0498 15.7202 47.9156 15.6195 47.8192V47.8019H15.6043C15.5761 47.7649 15.5304 47.7354 15.4832 47.7122C15.4496 47.6717 15.3906 47.6418 15.3422 47.6201C15.0649 47.4789 14.6787 47.4018 14.1889 47.4018C13.6766 47.4018 13.1571 47.4789 12.6416 47.6229C12.1035 47.7649 11.5747 47.986 11.0221 48.2704L10.7338 48.4211V48.0997V46.5315V46.395L10.8698 46.3485H10.878C11.0689 46.2836 11.2478 46.2104 11.4134 46.1617C11.5962 46.0979 11.7754 46.0519 11.957 46.0043C12.8623 45.7592 13.7328 45.6372 14.5549 45.6372C15.8882 45.6372 16.8259 45.9122 17.387 46.4599C17.4706 46.5315 17.5432 46.6168 17.6104 46.7148C17.6885 46.8096 17.7452 46.9111 17.8096 47.0209C18.0908 47.5646 18.2349 48.2925 18.2349 49.2261V53.4374C18.2349 53.7399 18.2548 53.9796 18.2791 54.1814C18.3142 54.3564 18.3478 54.4894 18.4056 54.5788C18.4122 54.5976 18.422 54.622 18.4353 54.637C18.4622 54.6519 18.4732 54.6763 18.4919 54.6858C18.5954 54.7711 18.7462 54.8172 18.9668 54.8172C19.0059 54.8172 19.0785 54.8022 19.1566 54.79C19.2464 54.7755 19.3581 54.7523 19.4889 54.7263L19.6826 54.6818V56.2217C19.6194 56.2512 19.5573 56.2634 19.5011 56.2729C19.412 56.2988 19.3433 56.3244 19.2535 56.3461C18.8821 56.4519 18.5548 56.5007 18.3142 56.5007C17.9873 56.5007 17.694 56.4436 17.4421 56.3382C17.3496 56.2918 17.2633 56.2513 17.1989 56.1997C16.8598 55.9829 16.6041 55.6685 16.4158 55.2417L16.4158 55.2417ZM16.0257 53.6353V51.3853H15.6773C14.4541 51.3853 13.5621 51.5438 12.9662 51.8787C12.4198 52.1742 12.1398 52.616 12.1398 53.2152V53.2179C12.1398 53.4375 12.1761 53.6354 12.2437 53.8077C12.2612 53.8282 12.2718 53.8537 12.2812 53.8903C12.3471 54.0257 12.4374 54.1453 12.5584 54.2507V54.2562C12.5948 54.2928 12.6416 54.3211 12.6823 54.351C12.7225 54.3876 12.7697 54.412 12.8139 54.4458C13.056 54.576 13.3493 54.6492 13.6914 54.6492C14.4069 54.6492 15.1926 54.305 16.0257 53.6353Z" fill="#252525"/>
<path fill-rule="evenodd" clip-rule="evenodd" d="M12.4738 9.28464V5.50849V5.13037H12.8545H16.4076H16.7802V5.50849V9.28464V9.6671H16.4076H12.8545H12.4738V9.28464Z" fill="#FEFEFE"/>
<path fill-rule="evenodd" clip-rule="evenodd" d="M33.6561 33.735C32.7656 33.8923 31.8858 34.0104 31.0176 34.089C30.1284 34.1728 29.2754 34.2122 28.4467 34.2122C26.9803 34.2122 25.7329 34.0713 24.721 33.8109C23.6771 33.5264 22.8593 33.1007 22.2887 32.533H22.2817C22.1341 32.3717 21.9779 32.1899 21.826 31.981C21.6928 31.7804 21.5741 31.5608 21.4546 31.3236C20.8988 30.1445 20.611 28.4815 20.611 26.3372V16.3696V13.6981V9.66699H24.9339V13.3063H33.1922H33.578V13.6981V16.4262V16.8043H33.1922H24.9339V26.912V26.9525C24.9339 27.4919 24.9472 27.9432 24.9823 28.3106L24.9956 28.4814H25.0077C25.0307 28.7469 25.0776 28.957 25.1209 29.1129C25.1342 29.1565 25.153 29.208 25.1787 29.2514C25.1947 29.2935 25.2244 29.334 25.2447 29.3773L25.2498 29.3816C25.3846 29.6106 25.5931 29.8191 25.8622 30.0158C26.2242 30.2531 26.6882 30.4372 27.2373 30.5686C27.7902 30.6855 28.4467 30.7641 29.2001 30.7641H29.2243C29.9374 30.7641 30.6599 30.7181 31.3742 30.6367V30.6312L31.7284 30.593V30.5961C32.3146 30.5131 32.9094 30.4022 33.5042 30.2637L33.9736 30.1539V30.6367V33.3514V33.6756L33.6561 33.735H33.6561Z" fill="#FEFEFE"/>
<path fill-rule="evenodd" clip-rule="evenodd" d="M12.4816 33.3775V16.7899H5.77061H5.38867V16.4063V13.7266V13.3414H5.77061H16.4076H16.7857V13.7266V33.3775V33.7528H16.4076H12.8624H12.4816V33.3775Z" fill="#FEFEFE"/>
</svg>
