<svg width="121" height="121" viewBox="0 0 121 121" fill="none" xmlns="http://www.w3.org/2000/svg">
<path d="M60.5 0C27.1407 0 0 27.1407 0 60.5C0 93.8593 27.1407 121 60.5 121C71.1385 121 81.5996 118.201 90.7574 112.902L83.1875 99.8079C76.3267 103.778 68.4797 105.875 60.5 105.875C35.4789 105.875 15.1249 85.5211 15.1249 60.5C15.1249 35.4789 35.4789 15.1249 60.5 15.1249C85.5211 15.1249 105.875 35.4789 105.875 60.5V67.0876C105.875 72.0358 102.696 75.6249 98.3125 75.6249C94.1434 75.6249 90.7499 72.2314 90.7499 68.0623V37.8125H80.2958C74.9756 33.1647 68.1023 30.2499 60.5 30.2499C43.8204 30.2499 30.2499 43.8204 30.2499 60.5C30.2499 77.1796 43.8204 90.7501 60.5 90.7501C68.4428 90.7501 75.6241 87.609 81.0274 82.5839C85.1923 87.5335 91.3524 90.7501 98.3125 90.7501C111.034 90.7501 121 80.3555 121 67.0876V60.5C121 27.1407 93.8593 0 60.5 0V0ZM60.5 75.6249C52.1582 75.6249 45.3751 68.8415 45.3751 60.5C45.3751 52.1582 52.1585 45.3751 60.5 45.3751C68.8418 45.3751 75.6249 52.1585 75.6249 60.5C75.6249 68.8418 68.8418 75.6249 60.5 75.6249Z" fill="#DA5114" fill-opacity="0.24"/>
</svg>
