<svg width="8" height="7" viewBox="0 0 8 7" fill="none" xmlns="http://www.w3.org/2000/svg">
<path d="M0 6.16666C0 6.53485 0.298477 6.83332 0.666667 6.83332H7.33333C7.70152 6.83332 8 6.53485 8 6.16666C8 5.79847 7.70152 5.49999 7.33333 5.49999H0.666667C0.298477 5.49999 0 5.79847 0 6.16666Z" fill="#828282"/>
<path d="M1.33333 3.49999C1.33333 3.86818 1.63181 4.16666 2 4.16666H6C6.36819 4.16666 6.66667 3.86818 6.66667 3.49999C6.66667 3.1318 6.36819 2.83332 6 2.83332H2C1.63181 2.83332 1.33333 3.1318 1.33333 3.49999Z" fill="#828282"/>
<path d="M3.33333 1.49999C2.96514 1.49999 2.66667 1.20151 2.66667 0.833323C2.66667 0.465133 2.96514 0.166656 3.33333 0.166656H4.66667C5.03486 0.166656 5.33333 0.465133 5.33333 0.833323C5.33333 1.20151 5.03486 1.49999 4.66667 1.49999H3.33333Z" fill="#828282"/>
</svg>
