<svg width="247" height="16" viewBox="0 0 247 16" fill="none" xmlns="http://www.w3.org/2000/svg">
<path d="M246.707 8.70711C247.098 8.31658 247.098 7.68342 246.707 7.29289L240.343 0.928932C239.953 0.538407 239.319 0.538407 238.929 0.928932C238.538 1.31946 238.538 1.95262 238.929 2.34315L244.586 8L238.929 13.6569C238.538 14.0474 238.538 14.6805 238.929 15.0711C239.319 15.4616 239.953 15.4616 240.343 15.0711L246.707 8.70711ZM1 6.99998C0.447723 6.99998 4.82823e-08 7.44769 0 7.99998C-4.82823e-08 8.55226 0.447723 8.99998 1 8.99998L1 6.99998ZM246 7L1 6.99998L1 8.99998L246 9L246 7Z" fill="#D5D5D5"/>
</svg>
